<svg width="128" height="128" viewBox="0 0 128 128" fill="none" xmlns="http://www.w3.org/2000/svg">
<rect width="128" height="128" rx="20" fill="white"/>
<path d="M87.0943 24.6401C84.6866 20.4138 79.3046 18.9524 75.1344 21.3924L14.4761 56.8835C10.3059 59.3235 8.86379 64.7777 11.2715 69.0039M87.0943 24.6401L113.36 70.7443C115.768 74.9706 114.326 80.4247 110.155 82.8648L96.1301 90.9474M87.0943 24.6401L64.5046 73.7161L11.2715 69.0039M11.2715 69.0039C11.2715 69.0039 16.9852 79.0331 23.7728 90.9474" stroke="white" stroke-width="13.4737" stroke-linecap="round" stroke-linejoin="round"/>
<path d="M37.1999 40.7637L38.042 42.2222L39.5005 41.3801L45.0705 38.1643L46.5291 37.3222L45.687 35.8636L39.0302 24.3337L39.0302 24.3336C38.7386 23.8287 38.5474 23.4949 38.4206 23.2271C38.5019 23.1721 38.604 23.1082 38.7317 23.0345L42.0403 21.1243L43.4988 20.2822L42.6567 18.8236L39.0818 12.6316L38.2397 11.173L36.7811 12.0151L31.4432 15.097C31.4432 15.097 31.4432 15.097 31.4432 15.097C27.886 17.1507 26.2904 21.868 29.0638 26.6715C29.0638 26.6715 29.0638 26.6715 29.0638 26.6715L37.1999 40.7637Z" fill="black" stroke="white" stroke-width="3.36842"/>
<path d="M11.221 69.1956C11.2208 69.1952 11.2209 69.1954 11.2206 69.195C8.94671 65.2099 10.2603 60.093 14.1548 57.7659L75.0943 21.3522C78.989 19.0249 83.9901 20.369 86.2645 24.3542L113.411 71.9194C115.642 75.8292 114.42 80.8286 110.695 83.214C110.551 83.306 110.414 83.4007 110.281 83.5074C109.188 84.3854 103.61 88.7513 96.3034 92.4895C88.856 92.4895 78.0129 99.4388 76.1611 100.663C75.9752 100.785 75.8074 100.93 75.6472 101.084C67.4045 109.04 51.3087 100.805 43.2215 96.6676C35.0551 92.4895 26.8887 96.6676 24.794 92.9782C22.7001 89.2901 11.2285 69.2087 11.221 69.1956Z" fill="white"/>
<path d="M87.0943 24.6401C84.6866 20.4138 79.3046 18.9524 75.1344 21.3924L14.4761 56.8835C10.3059 59.3235 8.86379 64.7777 11.2715 69.0039M87.0943 24.6401L113.36 70.7443C115.768 74.9706 114.326 80.4247 110.155 82.8648L96.1301 90.9474M87.0943 24.6401C87.0943 24.6401 67.3684 72.421 64.5046 73.7161C61.6408 75.0112 11.2715 69.0039 11.2715 69.0039M11.2715 69.0039C11.2715 69.0039 16.9852 79.0331 23.7728 90.9474" stroke="black" stroke-width="6.73684" stroke-linecap="round" stroke-linejoin="round"/>
<path d="M92.6316 88.0817C84.9011 88.0817 80.0337 91.1082 75.7389 93.7125C72.0168 96.176 69.1537 97.9356 64 97.9356C58.8463 97.9356 55.9832 96.176 52.2611 93.7125C47.9663 91.0379 43.2707 88.0817 35.3684 88.0817C27.4661 88.0817 22.7705 91.1082 18.4758 93.7125C14.7537 96.176 11.8905 97.9356 6.73684 97.9356V107.789C14.4674 107.789 19.3347 104.763 23.6295 102.159C27.3516 99.9064 30.3865 97.9356 35.3684 97.9356C40.3503 97.9356 43.3853 99.6952 47.1074 102.159C51.4021 104.833 56.0977 107.789 64 107.789C71.9023 107.789 76.5979 104.763 80.8926 102.159C84.6147 99.9064 87.6497 97.9356 92.6316 97.9356C97.7853 97.9356 100.648 99.6952 104.371 102.159C108.665 104.833 113.418 107.789 121.263 107.789V97.9356C116.109 97.9356 113.246 96.176 109.524 93.7125C105.229 91.0379 100.362 88.0817 92.6316 88.0817Z" fill="black"/>
</svg>
