<svg width="38" height="38" viewBox="0 0 38 38" fill="none" xmlns="http://www.w3.org/2000/svg">
<path d="M25.8561 7.31502C25.1413 6.06036 23.5436 5.62649 22.3055 6.35087L4.2976 16.8873C3.05956 17.6117 2.63144 19.2309 3.34622 20.4855M25.8561 7.31502L33.6538 21.0022C34.3686 22.2569 33.9404 23.8761 32.7024 24.6005L28.5386 27M25.8561 7.31502L19.1498 21.8845L3.34622 20.4855M3.34622 20.4855C3.34622 20.4855 5.04248 23.463 7.05754 27" stroke="white" stroke-width="4" stroke-linecap="round" stroke-linejoin="round"/>
<path d="M11.0437 12.1017L11.2937 12.5347L11.7267 12.2847L13.3803 11.33L13.8133 11.08L13.5633 10.647L11.5871 7.22405L11.5871 7.22405C11.5005 7.07414 11.4438 6.97504 11.4061 6.89555C11.4302 6.87922 11.4606 6.86025 11.4985 6.83836L12.4807 6.27127L12.9137 6.02127L12.6637 5.58826L11.6024 3.75L11.3524 3.31699L10.9194 3.56699L9.33471 4.48191C9.33471 4.48191 9.33471 4.48191 9.33471 4.48191C8.27868 5.09161 7.80498 6.49205 8.62832 7.9181C8.62832 7.9181 8.62832 7.9181 8.62832 7.9181L11.0437 12.1017Z" fill="black" stroke="white"/>
<path d="M3.33123 20.5424C3.33116 20.5423 3.3312 20.5424 3.33113 20.5423C2.65605 19.3592 3.04603 17.8401 4.20222 17.1492L22.2936 6.33893C23.4499 5.64802 24.9346 6.04704 25.6098 7.23015L33.6688 21.3511C34.3312 22.5118 33.9684 23.996 32.8626 24.7042C32.82 24.7315 32.7793 24.7596 32.7398 24.7913C32.4152 25.0519 30.7592 26.348 28.5901 27.4578C26.3791 27.4578 23.1601 29.5209 22.6103 29.8842C22.5551 29.9207 22.5053 29.9635 22.4578 30.0094C20.0107 32.3712 15.2323 29.9265 12.8314 28.6982C10.407 27.4578 7.98257 28.6982 7.36073 27.6029C6.7391 26.508 3.33344 20.5463 3.33123 20.5424Z" fill="#FDE68A"/>
<path d="M25.8561 7.31502C25.1413 6.06036 23.5436 5.62649 22.3055 6.35087L4.2976 16.8873C3.05956 17.6117 2.63144 19.2309 3.34622 20.4855M25.8561 7.31502L33.6538 21.0022C34.3686 22.2569 33.9404 23.8761 32.7024 24.6005L28.5386 27M25.8561 7.31502C25.8561 7.31502 20 21.5 19.1498 21.8845C18.2996 22.269 3.34622 20.4855 3.34622 20.4855M3.34622 20.4855C3.34622 20.4855 5.04248 23.463 7.05754 27" stroke="black" stroke-width="2" stroke-linecap="round" stroke-linejoin="round"/>
<path d="M27.5 26.1493C25.205 26.1493 23.76 27.0478 22.485 27.8209C21.38 28.5522 20.53 29.0746 19 29.0746C17.47 29.0746 16.62 28.5522 15.515 27.8209C14.24 27.0269 12.846 26.1493 10.5 26.1493C8.154 26.1493 6.76 27.0478 5.485 27.8209C4.38 28.5522 3.53 29.0746 2 29.0746V32C4.295 32 5.74 31.1015 7.015 30.3284C8.12 29.6597 9.021 29.0746 10.5 29.0746C11.979 29.0746 12.88 29.597 13.985 30.3284C15.26 31.1224 16.654 32 19 32C21.346 32 22.74 31.1015 24.015 30.3284C25.12 29.6597 26.021 29.0746 27.5 29.0746C29.03 29.0746 29.88 29.597 30.985 30.3284C32.26 31.1224 33.671 32 36 32V29.0746C34.47 29.0746 33.62 28.5522 32.515 27.8209C31.24 27.0269 29.795 26.1493 27.5 26.1493Z" fill="black"/>
</svg>
